<svg version="1.0" viewBox="0 0 128 128" xml:space="preserve" xmlns="http://www.w3.org/2000/svg" xmlns:xlink="http://www.w3.org/1999/xlink"><defs><linearGradient id="linearGradient5060"><stop offset="0"/><stop stop-opacity="0" offset="1"/></linearGradient><linearGradient id="linearGradient6715" x1="302.86" x2="302.86" y1="366.65" y2="609.51" gradientTransform="matrix(2.7744 0 0 1.9697 -1892.2 -872.89)" gradientUnits="userSpaceOnUse"><stop stop-opacity="0" offset="0"/><stop offset=".5"/><stop stop-opacity="0" offset="1"/></linearGradient><radialGradient id="radialGradient6717" cx="605.71" cy="486.65" r="117.14" gradientTransform="matrix(2.7744 0 0 1.9697 -1891.6 -872.89)" gradientUnits="userSpaceOnUse" xlink:href="#linearGradient5060"/><radialGradient id="radialGradient6719" cx="605.71" cy="486.65" r="117.14" gradientTransform="matrix(-2.7744 0 0 1.9697 112.76 -872.89)" gradientUnits="userSpaceOnUse" xlink:href="#linearGradient5060"/><linearGradient id="linearGradient18985" x1="12.378" x2="44.096" y1="4.4331" y2="47.621" gradientTransform="matrix(2.5646 0 0 1.8285 3.0047 26.373)" gradientUnits="userSpaceOnUse"><stop stop-color="#616161" offset="0"/><stop stop-color="#a0a0a0" offset="1"/></linearGradient><radialGradient id="radialGradient19000" cx="15.571" cy="2.9585" r="20.936" gradientTransform="matrix(3.1758 1.2018 -1.755 1.7982 -.64631 22.849)" gradientUnits="userSpaceOnUse"><stop stop-color="#b2b2b2" offset="0"/><stop stop-color="#a6a6a6" offset="1"/></radialGradient><linearGradient id="linearGradient19003" x1="7.6046" x2="36.183" y1="28.481" y2="40.944" gradientTransform="matrix(2.5551 0 0 2.0217 3.2353 19.025)" gradientUnits="userSpaceOnUse"><stop stop-color="#414141" offset="0"/><stop stop-color="#323232" offset="1"/></linearGradient><linearGradient id="linearGradient2495" x1="24" x2="24" y1="6.8752" y2="16.244" gradientTransform="matrix(1.4205 0 0 1.7894 133.35 18.136)" gradientUnits="userSpaceOnUse"><stop stop-opacity=".5" offset="0"/><stop stop-color="#fff" stop-opacity=".5" offset="1"/></linearGradient><radialGradient id="radialGradient3385" cx="18.873" cy="5.8856" r="12.5" gradientTransform="matrix(2.074 0 0 2.2062 123.94 18.592)" gradientUnits="userSpaceOnUse"><stop stop-color="#fff" offset="0"/><stop stop-color="#fff" stop-opacity="0" offset="1"/></radialGradient><linearGradient id="linearGradient4431" x1="16.857" x2="13.5" y1="9.0625" y2="9.125" gradientTransform="translate(-27.575 4.5)" gradientUnits="userSpaceOnUse" xlink:href="#linearGradient5060"/><linearGradient id="linearGradient13615" x1="7.6046" x2="36.183" y1="28.481" y2="40.944" gradientTransform="matrix(2.5551 0 0 .3248 3.2353 80.993)" gradientUnits="userSpaceOnUse"><stop stop-color="#4d4d80" offset="0"/><stop stop-color="#393960" offset="1"/></linearGradient></defs><g><g transform="matrix(.06267 0 0 .053319 119.98 90.616)"><rect x="-1559.3" y="-150.7" width="1339.6" height="478.36" fill="url(#linearGradient6715)" opacity=".40206"/><path d="m-219.62-150.68v478.33c142.87 0.90045 345.4-107.17 345.4-239.2 0-132.03-159.44-239.13-345.4-239.13z" fill="url(#radialGradient6717)" opacity=".40206"/><path d="m-1559.3-150.68v478.33c-142.87 0.90045-345.4-107.17-345.4-239.2 0-132.03 159.44-239.13 345.4-239.13z" fill="url(#radialGradient6719)" opacity=".40206"/></g><g transform="matrix(1.9703 0 0 1.9703 116.73 11.986)" fill-rule="evenodd"><path d="m-12.575 6.5v6l-1 3v6.4176s0.98115 0.57629 2 0.58237 2.0754-0.55806 2.0754-0.55806l-0.075417-6.4419-1-3v-6s-0.5-1-1-1-1 1-1 1z" fill="#fff"/><path d="m-12.575 2.876v14.699l-1 3v1.3422s0.98115 0.57629 2 0.58237 2.0754-0.55806 2.0754-0.55806l-0.075417-1.3665-1-3v-14.699s-0.5-1-1-1-1 1-1 1z" fill="url(#linearGradient4431)" stroke="#000" stroke-linejoin="round" stroke-width="1px"/></g><g transform="matrix(1.9703 0 0 1.9703 78.733 11.986)" fill-rule="evenodd"><path d="m-12.575 6.5v6l-1 3v6.4176s0.98115 0.57629 2 0.58237 2.0754-0.55806 2.0754-0.55806l-0.075417-6.4419-1-3v-6s-0.5-1-1-1-1 1-1 1z" fill="#fff"/><path d="m-12.575 2.876v14.699l-1 3v1.3422s0.98115 0.57629 2 0.58237 2.0754-0.55806 2.0754-0.55806l-0.075417-1.3665-1-3v-14.699s-0.5-1-1-1-1 1-1 1z" fill="url(#linearGradient4431)" stroke="#000" stroke-linejoin="round" stroke-width="1px"/></g><path d="m11.6 73.604 1.9536-1.3994 96.097 0.12636 8.8468 0.64148v21.103c0 2.2755-1.551 3.7266-4.0674 3.7266h-98.584c-2.5512 0-4.2462-1.0959-4.2462-3.2846z" fill="url(#linearGradient19003)" fill-rule="evenodd"/><path d="m13.553 89.537-1.9531 0.22461v3.3594c0 0.35163 1.6949 0.52734 4.2461 0.52734h98.584c2.5164-1e-6 4.0664-0.23207 4.0664-0.59766v-3.3906l-8.8457-0.10352-27.428-0.00586c-0.29896 0.7704-0.9503 1.3066-1.7148 1.3066h-35.99c-0.76727 0-1.4213-0.53959-1.7188-1.3145l-29.246-0.00586z" fill="url(#linearGradient13615)" fill-rule="evenodd"/><path d="m27.849 48.137c-1.6077 0-2.6527 0.5431-3.2958 1.5792-2e-6 0-12.64 24.011-12.64 24.011s-0.64309 1.2569-0.64309 3.3338v18.061c0 2.0262 1.6921 3.0414 4.2605 3.0413h99.197c2.5334 0 4.0997-1.3441 4.0997-3.4508v-18.061s0.27258-1.4419-0.24116-2.4565l-13.283-24.186c-0.47467-0.95808-1.6384-1.8493-2.8939-1.8716z" fill="none" stroke="#535353" stroke-linecap="round" stroke-linejoin="round" stroke-width="4.3884"/><path d="m13.93 70.19c-1.7636 2.2513-0.0015 3.679 2.5573 3.679h96.294c2.763-0.03661 4.556-1.5558 3.5272-3.2946l-12.578-18.461c-0.4556-0.78704-1.6166-1.5192-2.8218-1.5375h-71.843c-1.5432 0-2.5573 0.46674-3.1745 1.3178z" fill="url(#radialGradient19000)" fill-rule="evenodd"/><path d="m28.864 49.761c-1.5431 0-2.5462 0.51081-3.1634 1.4853-3e-6 0-12.452 22.336-12.452 22.336s-0.61725 1.1821-0.61725 3.1355v16.987c0 2.4771 1.1388 2.9748 4.0893 2.9748h96.654c3.3934 0 3.935-0.57853 3.935-3.3598v-16.987s0.26161-1.3562-0.23147-2.3104l-12.909-22.73c-0.45559-0.90111-1.4122-1.5108-2.6173-1.5318z" fill="none" stroke="url(#linearGradient18985)" stroke-linecap="round" stroke-linejoin="round" stroke-width="2.166"/><g fill="#525252" stroke-width=".4"><path d="m39.139 85.003a1.8 1.8 0 1 1-3.6 0 1.8 1.8 0 1 1 3.6 0z" stroke="#99ff47"/><path d="m92.251 88.004a2.2514 2.2514 0 1 1-4.5027 0 2.2514 2.2514 0 1 1 4.5027 0z" stroke="#bfbfbf"/><path d="m92.251 82.004a2.2514 2.2514 0 1 1-4.5027 0 2.2514 2.2514 0 1 1 4.5027 0z" stroke="#bfbfbf"/></g><g transform="translate(-104.93 46.615)" fill-rule="evenodd"><rect x="148.4" y="33.25" width="38.024" height="10.338" rx="1.7977" ry="1.9671" color="#000000" display="block" opacity=".28141"/><g transform="translate(0 -1.0199)"><rect x="153.7" y="35.043" width="31.809" height="8.7349" rx=".79517" ry="1.0916" color="#000000" display="block" fill="#c9952c"/><path d="m154.33 35.043c-0.0649 0.01811-0.14088 0.07096-0.19884 0.10918-0.0451 0.03353-0.11984 0.11936-0.15908 0.16378-0.0188 0.02346-0.0625 0.08337-0.0796 0.10918-0.11326 0.18854-0.19885 0.44514-0.19885 0.70971v4.5312c3.3676 0.6708 7.0434 1.0373 10.897 1.0373 8.2105 0 15.621-1.671 20.919-4.3675v-1.2011c0-0.26457-0.0856-0.52117-0.19884-0.70971-0.0171-0.02582-0.0607-0.08572-0.0796-0.10918-0.0393-0.04442-0.11399-0.13025-0.15907-0.16378-0.10434-0.06881-0.23403-0.10918-0.35793-0.10918h-30.225c-0.055 0-0.10722-0.0145-0.15908 0z" color="#000000" display="block" fill="url(#radialGradient3385)" opacity=".40201"/></g><rect x="147.55" y="32.451" width="39.775" height="11.791" rx="1.892" ry="2.2435" color="#000000" fill="url(#linearGradient2495)" opacity=".28141"/></g><path d="m110.14 85.003a3.3 3.2999 0 1 1-6.6 0 3.3 3.2999 0 1 1 6.6 0z" fill="#525252" stroke="#ff4747" stroke-width=".4"/></g></svg>
